# xmcd
#
# Track frame offsets:
#	150
#	19797
#	39635
#	63673
#	86427
#	107233
#	127687
#	146703
#	163336
#	182329
#
# Disc length: 2756 seconds
#
# Revision: 1
# Processed by: cddbd v1.5.2PL0 Copyright (c) Steve Scherf et al.
# Submitted via: EZCDAudioConverter 2.4.0.1
#
DISCID=830ac20a
DTITLE=Mai Thien Van - Thanh Tam Chua
DYEAR=2011
DGENRE=Vietnamese
TTITLE0=Kinh Hoa Binh
TTITLE1=Thanh Tam Chua Giesu
TTITLE2=Toi Khong Con Co Don
TTITLE3=Con Chi La Tao Vat
TTITLE4=Chut Long Son
TTITLE5=Bo Da Xanh Ta Toi
TTITLE6=Cau Cho Cha Me 2
TTITLE7=Neu Chua La
TTITLE8=Chua Da Thay
TTITLE9=Phut Linh Thieng
EXTD=
EXTT0=
EXTT1=
EXTT2=
EXTT3=
EXTT4=
EXTT5=
EXTT6=
EXTT7=
EXTT8=
EXTT9=
PLAYORDER=
